<svg data-v-0dd9719b="" version="1.0" xmlns="http://www.w3.org/2000/svg" xmlns:xlink="http://www.w3.org/1999/xlink" width="100%" height="100%" viewBox="0 0 340.000000 250.000000" preserveAspectRatio="xMidYMid meet" color-interpolation-filters="sRGB" style="margin: auto;"> <rect data-v-0dd9719b="" x="0" y="0" width="100%" height="100%" fill="#FFFFFF" fill-opacity="1" class="background"></rect> <rect data-v-0dd9719b="" x="0" y="0" width="100%" height="100%" fill="url(#watermark)" fill-opacity="1" class="watermarklayer"></rect> <g data-v-0dd9719b="" fill="#300000" class="icon-text-wrapper icon-svg-group iconsvg" transform="translate(74.36000061035156,94.98348999023438)"><g class="iconsvg-imagesvg" transform="translate(0,0)"><g><rect fill="#300000" fill-opacity="0" stroke-width="2" x="0" y="0" width="60" height="60.033018159987996" class="image-rect"></rect> <svg x="0" y="0" width="60" height="60.033018159987996" filtersec="colorsb178557575" class="image-svg-svg primary" style="overflow: visible;"><svg xmlns="http://www.w3.org/2000/svg" viewBox="0 -0.000057221815950470045 119.93415069580078 120.00004577636719"><defs><clipPath id="abc6873ee-894b-4989-8f83-475b2925b8c1" transform="translate(-.33 -.33)"><path fill="none" d="M0 0h120.59v120.59H0z"></path></clipPath></defs><g><g clip-path="url(#abc6873ee-894b-4989-8f83-475b2925b8c1)"><path d="M100.47 49.6c-14.41 7.97-21.46 38.95-46.8 46.37 0 0 16.09-10.87 15.86-17 0 0-35.23 30.68-67.37-9 0 0 48.26 36.16 84-22.32 2.28-3.73 7-9 16.6-5.58a11.89 11.89 0 0 0 8.08-.52c3.47-1.37 1.54 1.47-10.37 8.05zM59.89 0a59.82 59.82 0 0 0-39 14.39c5.93 13.41 18.9 33.38 44.07 33.28 0 0-34 2.92-49.9-27.49a61.85 61.85 0 0 0-4.52 5.68C17.8 38.54 34.44 57.29 68.37 53c0 0-31.36 17.26-64.15-15.4a57.32 57.32 0 0 0-2.44 7.55c10.25 9.26 36.82 27.91 72.64 13.26 0 0-32 33.93-74.42 4.4A60 60 0 1 0 59.89 0z" fill="#ea3637"></path></g></g></svg></svg> <!----></g></g> <g transform="translate(67,15.006509780883789)"><g data-gra="path-name" fill-rule="" class="tp-name iconsvg-namesvg"><g transform="scale(1)"><g><path d="M7.6 0L0.14 0 12.55-30.02 19.89-30.02 32.31 0 24.84 0 21.91-6.93 10.53-6.93 7.6 0ZM20.52-12.29L16.25-22.77 11.97-12.29 20.52-12.29ZM35.19-13.14L35.19-30.02 41.54-30.02 41.54-13.14Q41.67-9.95 41.8-8.91L41.8-8.91Q42.12-6.84 43.79-6.1 45.45-5.35 49.64-5.35L49.64-5.35 55.76-5.35 55.76 0 48.96 0Q44.15 0 41.98-0.54L41.98-0.54Q37.04-1.98 35.69-6.84L35.69-6.84Q35.19-8.73 35.19-13.14L35.19-13.14ZM66.15 0L66.15-24.66 56.61-24.66 56.61-30.02 82.48-30.02 82.48-24.66 72.54-24.66 72.54 0 66.15 0ZM92.16 0L85.77 0 85.77-30.02 92.16-30.02 92.16 0ZM116.59 0L104.35-22 104.35 0 98.23 0 98.23-30.02 106.42-30.02 118.35-7.65 118.35-30.02 124.42-30.02 124.42 0 116.59 0Z" transform="translate(-0.14000000059604645, 30.020000457763672)"></path></g> <!----> <!----> <!----> <!----> <!----> <!----> <!----></g></g> <!----></g></g><defs v-gra="od"></defs></svg>